<svg width="1200" height="739" viewBox="0 0 1200 739" fill="none" xmlns="http://www.w3.org/2000/svg">
<g clip-path="url(#clip0_326_4077)">
<line x1="-4.38401e-08" y1="-0.499756" x2="1200" y2="-0.49986" stroke="#E2E7F0"/>
<line x1="-4.38401e-08" y1="39.5004" x2="1200" y2="39.5003" stroke="#E2E7F0"/>
<line x1="-4.38401e-08" y1="79.5005" x2="1200" y2="79.5004" stroke="#E2E7F0"/>
<line x1="-4.38401e-08" y1="119.5" x2="1200" y2="119.5" stroke="#E2E7F0"/>
<line x1="-4.38401e-08" y1="159.501" x2="1200" y2="159.501" stroke="#E2E7F0"/>
<line x1="-4.38401e-08" y1="199.501" x2="1200" y2="199.501" stroke="#E2E7F0"/>
<line x1="-4.38401e-08" y1="239.501" x2="1200" y2="239.501" stroke="#E2E7F0"/>
<line x1="-4.38401e-08" y1="279.501" x2="1200" y2="279.501" stroke="#E2E7F0"/>
<line x1="-4.38401e-08" y1="319.501" x2="1200" y2="319.501" stroke="#E2E7F0"/>
<line x1="-4.38401e-08" y1="359.501" x2="1200" y2="359.501" stroke="#E2E7F0"/>
<line x1="-4.38401e-08" y1="399.501" x2="1200" y2="399.501" stroke="#E2E7F0"/>
<line x1="-2.42882e-08" y1="439.501" x2="1200" y2="439.501" stroke="#E2E7F0"/>
<line x1="-2.42882e-08" y1="479.501" x2="1200" y2="479.501" stroke="#E2E7F0"/>
<line x1="-2.42882e-08" y1="519.502" x2="1200" y2="519.502" stroke="#E2E7F0"/>
<line x1="-2.42882e-08" y1="559.502" x2="1200" y2="559.502" stroke="#E2E7F0"/>
<line x1="-2.42882e-08" y1="599.502" x2="1200" y2="599.502" stroke="#E2E7F0"/>
<line x1="-2.42882e-08" y1="639.502" x2="1200" y2="639.502" stroke="#E2E7F0"/>
<line x1="-2.42882e-08" y1="679.502" x2="1200" y2="679.502" stroke="#E2E7F0"/>
<line x1="-2.42882e-08" y1="719.503" x2="1200" y2="719.503" stroke="#E2E7F0"/>
<line x1="39.5001" y1="1082" x2="39.5001" y2="-153" stroke="#E2E7F0"/>
<line x1="79.5001" y1="1082" x2="79.5001" y2="-153" stroke="#E2E7F0"/>
<line x1="119.5" y1="1082" x2="119.5" y2="-153" stroke="#E2E7F0"/>
<line x1="159.5" y1="1082" x2="159.5" y2="-153" stroke="#E2E7F0"/>
<line x1="199.5" y1="1082" x2="199.5" y2="-153" stroke="#E2E7F0"/>
<line x1="239.5" y1="1082" x2="239.5" y2="-153" stroke="#E2E7F0"/>
<line x1="279.5" y1="1082" x2="279.5" y2="-153" stroke="#E2E7F0"/>
<line x1="319.5" y1="1082" x2="319.5" y2="-153" stroke="#E2E7F0"/>
<line x1="359.5" y1="1082" x2="359.5" y2="-153" stroke="#E2E7F0"/>
<line x1="399.5" y1="1082" x2="399.5" y2="-153" stroke="#E2E7F0"/>
<line x1="439.5" y1="1082" x2="439.5" y2="-153" stroke="#E2E7F0"/>
<line x1="479.5" y1="1082" x2="479.5" y2="-153" stroke="#E2E7F0"/>
<line x1="519.5" y1="1082" x2="519.5" y2="-153" stroke="#E2E7F0"/>
<line x1="559.5" y1="1082" x2="559.5" y2="-153" stroke="#E2E7F0"/>
<line x1="599.5" y1="1082" x2="599.5" y2="-153" stroke="#E2E7F0"/>
<line x1="639.501" y1="1082" x2="639.501" y2="-153" stroke="#E2E7F0"/>
<line x1="679.501" y1="1082" x2="679.501" y2="-153" stroke="#E2E7F0"/>
<line x1="719.501" y1="1082" x2="719.501" y2="-153" stroke="#E2E7F0"/>
<line x1="759.501" y1="1082" x2="759.501" y2="-153" stroke="#E2E7F0"/>
<line x1="799.501" y1="1082" x2="799.501" y2="-153" stroke="#E2E7F0"/>
<line x1="839.501" y1="1082" x2="839.501" y2="-153" stroke="#E2E7F0"/>
<line x1="879.501" y1="1082" x2="879.501" y2="-153" stroke="#E2E7F0"/>
<line x1="919.501" y1="1082" x2="919.501" y2="-153" stroke="#E2E7F0"/>
<line x1="959.501" y1="1082" x2="959.501" y2="-153" stroke="#E2E7F0"/>
<line x1="999.501" y1="1082" x2="999.501" y2="-153" stroke="#E2E7F0"/>
<line x1="1039.5" y1="1082" x2="1039.5" y2="-153" stroke="#E2E7F0"/>
<line x1="1079.5" y1="1082" x2="1079.5" y2="-153" stroke="#E2E7F0"/>
<line x1="1119.5" y1="1082" x2="1119.5" y2="-153" stroke="#E2E7F0"/>
<line x1="1159.5" y1="1082" x2="1159.5" y2="-153" stroke="#E2E7F0"/>
<line x1="1199.5" y1="1082" x2="1199.5" y2="-153" stroke="#E2E7F0"/>
<rect width="1200" height="58" transform="matrix(1 0 0 -1 0 739)" fill="url(#paint0_linear_326_4077)"/>
<rect width="1200" height="58" transform="matrix(1 0 0 -1 0 739)" fill="url(#paint1_linear_326_4077)"/>
<rect width="1200" height="58" fill="url(#paint2_linear_326_4077)"/>
<rect width="1200" height="58" fill="url(#paint3_linear_326_4077)"/>
<rect width="60" height="739" fill="url(#paint4_linear_326_4077)"/>
<rect width="60" height="739" transform="matrix(-1 0 0 1 1200 0)" fill="url(#paint5_linear_326_4077)"/>
</g>
<defs>
<linearGradient id="paint0_linear_326_4077" x1="600" y1="0" x2="600" y2="58" gradientUnits="userSpaceOnUse">
<stop stop-color="#f0f0f0"/>
<stop offset="1" stop-color="#f0f0f0" stop-opacity="0"/>
</linearGradient>
<linearGradient id="paint1_linear_326_4077" x1="600" y1="0" x2="600" y2="58" gradientUnits="userSpaceOnUse">
<stop stop-color="#f0f0f0"/>
<stop offset="1" stop-color="#f0f0f0" stop-opacity="0"/>
</linearGradient>
<linearGradient id="paint2_linear_326_4077" x1="600" y1="0" x2="600" y2="58" gradientUnits="userSpaceOnUse">
<stop stop-color="#f0f0f0"/>
<stop offset="1" stop-color="#f0f0f0" stop-opacity="0"/>
</linearGradient>
<linearGradient id="paint3_linear_326_4077" x1="600" y1="0" x2="600" y2="58" gradientUnits="userSpaceOnUse">
<stop stop-color="#f0f0f0"/>
<stop offset="1" stop-color="#f0f0f0" stop-opacity="0"/>
</linearGradient>
<linearGradient id="paint4_linear_326_4077" x1="5" y1="739" x2="69" y2="739" gradientUnits="userSpaceOnUse">
<stop stop-color="#f0f0f0"/>
<stop offset="1" stop-color="#f0f0f0" stop-opacity="0"/>
</linearGradient>
<linearGradient id="paint5_linear_326_4077" x1="5" y1="739" x2="69" y2="739" gradientUnits="userSpaceOnUse">
<stop stop-color="#f0f0f0"/>
<stop offset="1" stop-color="#f0f0f0" stop-opacity="0"/>
</linearGradient>
<clipPath id="clip0_326_4077">
<rect width="1200" height="739" fill="#f0f0f0"/>
</clipPath>
</defs>
</svg>
